<svg xmlns="http://www.w3.org/2000/svg" xmlns:xlink="http://www.w3.org/1999/xlink" width="500" zoomAndPan="magnify" viewBox="0 0 375 89.999999" height="120" preserveAspectRatio="xMidYMid meet" version="1.0"><defs><g/><clipPath id="8eb4698ff0"><path d="M 9.054688 10 L 55.398438 10 L 55.398438 70.921875 L 9.054688 70.921875 Z M 9.054688 10 " clip-rule="nonzero"/></clipPath></defs><g clip-path="url(#8eb4698ff0)"><path fill="#000000" d="M 9.070312 40.546875 C 9.070312 37.558594 11.410156 35.121094 14.359375 34.941406 L 42.507812 34.941406 L 43.742188 28.878906 C 44.96875 23.308594 41.421875 17.78125 35.835938 16.5625 C 30.25 15.339844 24.710938 18.878906 23.484375 24.449219 L 22.84375 27.738281 C 22.621094 28.75 21.617188 29.386719 20.605469 29.167969 L 18.363281 28.675781 C 17.347656 28.457031 16.707031 27.457031 16.929688 26.445312 L 17.574219 23.152344 C 19.515625 14.332031 28.289062 8.726562 37.132812 10.664062 C 45.980469 12.597656 51.597656 21.351562 49.65625 30.171875 L 48.683594 34.941406 L 49.8125 34.941406 C 52.929688 34.941406 55.453125 37.464844 55.449219 40.570312 L 55.445312 65.257812 C 55.445312 68.367188 52.917969 70.882812 49.800781 70.882812 L 14.703125 70.863281 C 11.585938 70.863281 9.0625 68.34375 9.066406 65.234375 Z M 30.714844 53.875 L 30.710938 60.867188 L 33.265625 60.867188 L 33.269531 53.875 C 34.675781 53.355469 35.679688 52.019531 35.683594 50.4375 C 35.683594 48.40625 34.03125 46.757812 31.996094 46.757812 C 29.957031 46.757812 28.304688 48.402344 28.304688 50.433594 C 28.304688 52.015625 29.308594 53.351562 30.714844 53.875 Z M 30.714844 53.875 " fill-opacity="1" fill-rule="nonzero"/></g><g fill="#000000" fill-opacity="1"><g transform="translate(62.062485, 68.644781)"><g><path d="M 26.921875 0 L 25.765625 -4.046875 L 25.3125 -4.046875 C 24.382812 -2.578125 23.070312 -1.441406 21.375 -0.640625 C 19.675781 0.160156 17.742188 0.5625 15.578125 0.5625 C 11.867188 0.5625 9.070312 -0.429688 7.1875 -2.421875 C 5.300781 -4.410156 4.359375 -7.269531 4.359375 -11 L 4.359375 -31.625 L 12.984375 -31.625 L 12.984375 -13.15625 C 12.984375 -10.875 13.382812 -9.160156 14.1875 -8.015625 C 15 -6.878906 16.296875 -6.3125 18.078125 -6.3125 C 20.484375 -6.3125 22.222656 -7.113281 23.296875 -8.71875 C 24.378906 -10.332031 24.921875 -13.007812 24.921875 -16.75 L 24.921875 -31.625 L 33.546875 -31.625 L 33.546875 0 Z M 26.921875 0 "/></g></g></g><g fill="#000000" fill-opacity="1"><g transform="translate(97.581829, 68.644781)"><g><path d="M 33.71875 0 L 25.09375 0 L 25.09375 -18.46875 C 25.09375 -20.75 24.6875 -22.457031 23.875 -23.59375 C 23.0625 -24.738281 21.769531 -25.3125 20 -25.3125 C 17.582031 -25.3125 15.835938 -24.503906 14.765625 -22.890625 C 13.691406 -21.273438 13.15625 -18.601562 13.15625 -14.875 L 13.15625 0 L 4.53125 0 L 4.53125 -31.625 L 11.109375 -31.625 L 12.28125 -27.578125 L 12.75 -27.578125 C 13.71875 -29.097656 15.046875 -30.25 16.734375 -31.03125 C 18.421875 -31.820312 20.335938 -32.21875 22.484375 -32.21875 C 26.160156 -32.21875 28.953125 -31.222656 30.859375 -29.234375 C 32.765625 -27.242188 33.71875 -24.375 33.71875 -20.625 Z M 33.71875 0 "/></g></g></g><g fill="#000000" fill-opacity="1"><g transform="translate(133.101173, 68.644781)"><g><path d="M 13.15625 0 L 4.53125 0 L 4.53125 -44 L 13.15625 -44 Z M 13.15625 0 "/></g></g></g><g fill="#000000" fill-opacity="1"><g transform="translate(148.228879, 68.644781)"><g><path d="M 11.390625 -15.859375 C 11.390625 -12.734375 11.90625 -10.367188 12.9375 -8.765625 C 13.96875 -7.160156 15.640625 -6.359375 17.953125 -6.359375 C 20.253906 -6.359375 21.910156 -7.15625 22.921875 -8.75 C 23.929688 -10.34375 24.4375 -12.710938 24.4375 -15.859375 C 24.4375 -18.992188 23.925781 -21.34375 22.90625 -22.90625 C 21.882812 -24.46875 20.21875 -25.25 17.90625 -25.25 C 15.601562 -25.25 13.941406 -24.472656 12.921875 -22.921875 C 11.898438 -21.367188 11.390625 -19.015625 11.390625 -15.859375 Z M 33.265625 -15.859375 C 33.265625 -10.710938 31.90625 -6.6875 29.1875 -3.78125 C 26.46875 -0.882812 22.6875 0.5625 17.84375 0.5625 C 14.8125 0.5625 12.132812 -0.0976562 9.8125 -1.421875 C 7.488281 -2.753906 5.707031 -4.664062 4.46875 -7.15625 C 3.226562 -9.644531 2.609375 -12.546875 2.609375 -15.859375 C 2.609375 -21.023438 3.953125 -25.039062 6.640625 -27.90625 C 9.335938 -30.78125 13.128906 -32.21875 18.015625 -32.21875 C 21.046875 -32.21875 23.722656 -31.554688 26.046875 -30.234375 C 28.367188 -28.910156 30.148438 -27.015625 31.390625 -24.546875 C 32.640625 -22.078125 33.265625 -19.179688 33.265625 -15.859375 Z M 33.265625 -15.859375 "/></g></g></g><g fill="#000000" fill-opacity="1"><g transform="translate(181.542191, 68.644781)"><g><path d="M 17.359375 0.5625 C 7.523438 0.5625 2.609375 -4.835938 2.609375 -15.640625 C 2.609375 -21.015625 3.945312 -25.117188 6.625 -27.953125 C 9.300781 -30.796875 13.132812 -32.21875 18.125 -32.21875 C 21.78125 -32.21875 25.0625 -31.5 27.96875 -30.0625 L 25.421875 -23.390625 C 24.066406 -23.929688 22.800781 -24.375 21.625 -24.71875 C 20.457031 -25.070312 19.289062 -25.25 18.125 -25.25 C 13.632812 -25.25 11.390625 -22.066406 11.390625 -15.703125 C 11.390625 -9.515625 13.632812 -6.421875 18.125 -6.421875 C 19.789062 -6.421875 21.328125 -6.640625 22.734375 -7.078125 C 24.148438 -7.523438 25.566406 -8.21875 26.984375 -9.15625 L 26.984375 -1.78125 C 25.585938 -0.894531 24.175781 -0.285156 22.75 0.046875 C 21.332031 0.390625 19.535156 0.5625 17.359375 0.5625 Z M 17.359375 0.5625 "/></g></g></g><g fill="#000000" fill-opacity="1"><g transform="translate(208.774785, 68.644781)"><g><path d="M 12.8125 -17.203125 L 16.578125 -22 L 25.421875 -31.625 L 35.15625 -31.625 L 22.59375 -17.90625 L 35.921875 0 L 25.96875 0 L 16.859375 -12.8125 L 13.15625 -9.84375 L 13.15625 0 L 4.53125 0 L 4.53125 -44 L 13.15625 -44 L 13.15625 -24.375 L 12.703125 -17.203125 Z M 12.8125 -17.203125 "/></g></g></g><g fill="#000000" fill-opacity="1"><g transform="translate(242.144662, 68.644781)"><g><path d="M 17.84375 -6.3125 C 19.351562 -6.3125 21.164062 -6.640625 23.28125 -7.296875 L 23.28125 -0.875 C 21.125 0.0820312 18.484375 0.5625 15.359375 0.5625 C 11.910156 0.5625 9.394531 -0.304688 7.8125 -2.046875 C 6.238281 -3.796875 5.453125 -6.414062 5.453125 -9.90625 L 5.453125 -25.140625 L 1.328125 -25.140625 L 1.328125 -28.796875 L 6.078125 -31.671875 L 8.5625 -38.34375 L 14.078125 -38.34375 L 14.078125 -31.625 L 22.9375 -31.625 L 22.9375 -25.140625 L 14.078125 -25.140625 L 14.078125 -9.90625 C 14.078125 -8.675781 14.421875 -7.769531 15.109375 -7.1875 C 15.804688 -6.601562 16.71875 -6.3125 17.84375 -6.3125 Z M 17.84375 -6.3125 "/></g></g></g><g fill="#000000" fill-opacity="1"><g transform="translate(264.738934, 68.644781)"><g><path d="M 3.3125 -4.046875 C 3.3125 -5.628906 3.734375 -6.828125 4.578125 -7.640625 C 5.429688 -8.453125 6.664062 -8.859375 8.28125 -8.859375 C 9.851562 -8.859375 11.066406 -8.441406 11.921875 -7.609375 C 12.773438 -6.773438 13.203125 -5.585938 13.203125 -4.046875 C 13.203125 -2.554688 12.769531 -1.378906 11.90625 -0.515625 C 11.039062 0.335938 9.832031 0.765625 8.28125 0.765625 C 6.695312 0.765625 5.472656 0.347656 4.609375 -0.484375 C 3.742188 -1.328125 3.3125 -2.515625 3.3125 -4.046875 Z M 3.3125 -4.046875 "/></g></g></g><g fill="#000000" fill-opacity="1"><g transform="translate(278.707051, 68.644781)"><g><path d="M 32.828125 0 L 24.203125 0 L 24.203125 -18.46875 C 24.203125 -20.75 23.820312 -22.457031 23.0625 -23.59375 C 22.300781 -24.738281 21.097656 -25.3125 19.453125 -25.3125 C 17.253906 -25.3125 15.65625 -24.5 14.65625 -22.875 C 13.65625 -21.257812 13.15625 -18.59375 13.15625 -14.875 L 13.15625 0 L 4.53125 0 L 4.53125 -31.625 L 11.109375 -31.625 L 12.28125 -27.578125 L 12.75 -27.578125 C 13.601562 -29.023438 14.828125 -30.160156 16.421875 -30.984375 C 18.023438 -31.804688 19.867188 -32.21875 21.953125 -32.21875 C 26.679688 -32.21875 29.882812 -30.671875 31.5625 -27.578125 L 32.328125 -27.578125 C 33.171875 -29.046875 34.414062 -30.1875 36.0625 -31 C 37.71875 -31.8125 39.582031 -32.21875 41.65625 -32.21875 C 45.238281 -32.21875 47.945312 -31.296875 49.78125 -29.453125 C 51.625 -27.617188 52.546875 -24.675781 52.546875 -20.625 L 52.546875 0 L 43.890625 0 L 43.890625 -18.46875 C 43.890625 -20.75 43.507812 -22.457031 42.75 -23.59375 C 41.988281 -24.738281 40.785156 -25.3125 39.140625 -25.3125 C 37.023438 -25.3125 35.441406 -24.554688 34.390625 -23.046875 C 33.347656 -21.535156 32.828125 -19.140625 32.828125 -15.859375 Z M 32.828125 0 "/></g></g></g><g fill="#000000" fill-opacity="1"><g transform="translate(333.034233, 68.644781)"><g><path d="M 17.625 -26.078125 C 15.789062 -26.078125 14.351562 -25.492188 13.3125 -24.328125 C 12.28125 -23.171875 11.691406 -21.53125 11.546875 -19.40625 L 23.640625 -19.40625 C 23.609375 -21.53125 23.050781 -23.171875 21.96875 -24.328125 C 20.894531 -25.492188 19.445312 -26.078125 17.625 -26.078125 Z M 18.828125 0.5625 C 13.742188 0.5625 9.769531 -0.835938 6.90625 -3.640625 C 4.039062 -6.453125 2.609375 -10.429688 2.609375 -15.578125 C 2.609375 -20.878906 3.929688 -24.976562 6.578125 -27.875 C 9.222656 -30.769531 12.882812 -32.21875 17.5625 -32.21875 C 22.03125 -32.21875 25.507812 -30.941406 28 -28.390625 C 30.488281 -25.847656 31.734375 -22.332031 31.734375 -17.84375 L 31.734375 -13.65625 L 11.34375 -13.65625 C 11.4375 -11.207031 12.160156 -9.296875 13.515625 -7.921875 C 14.878906 -6.546875 16.785156 -5.859375 19.234375 -5.859375 C 21.140625 -5.859375 22.9375 -6.054688 24.625 -6.453125 C 26.320312 -6.847656 28.097656 -7.476562 29.953125 -8.34375 L 29.953125 -1.671875 C 28.441406 -0.910156 26.828125 -0.347656 25.109375 0.015625 C 23.398438 0.378906 21.304688 0.5625 18.828125 0.5625 Z M 18.828125 0.5625 "/></g></g></g><g fill="#01aff0" fill-opacity="1"><g transform="translate(264.731707, 68.644781)"><g><path d="M 3.3125 -4.046875 C 3.3125 -5.628906 3.734375 -6.828125 4.578125 -7.640625 C 5.429688 -8.453125 6.664062 -8.859375 8.28125 -8.859375 C 9.851562 -8.859375 11.066406 -8.441406 11.921875 -7.609375 C 12.773438 -6.773438 13.203125 -5.585938 13.203125 -4.046875 C 13.203125 -2.554688 12.769531 -1.378906 11.90625 -0.515625 C 11.039062 0.335938 9.832031 0.765625 8.28125 0.765625 C 6.695312 0.765625 5.472656 0.347656 4.609375 -0.484375 C 3.742188 -1.328125 3.3125 -2.515625 3.3125 -4.046875 Z M 3.3125 -4.046875 "/></g></g></g><g fill="#01aff0" fill-opacity="1"><g transform="translate(278.699823, 68.644781)"><g><path d="M 32.828125 0 L 24.203125 0 L 24.203125 -18.46875 C 24.203125 -20.75 23.820312 -22.457031 23.0625 -23.59375 C 22.300781 -24.738281 21.097656 -25.3125 19.453125 -25.3125 C 17.253906 -25.3125 15.65625 -24.5 14.65625 -22.875 C 13.65625 -21.257812 13.15625 -18.59375 13.15625 -14.875 L 13.15625 0 L 4.53125 0 L 4.53125 -31.625 L 11.109375 -31.625 L 12.28125 -27.578125 L 12.75 -27.578125 C 13.601562 -29.023438 14.828125 -30.160156 16.421875 -30.984375 C 18.023438 -31.804688 19.867188 -32.21875 21.953125 -32.21875 C 26.679688 -32.21875 29.882812 -30.671875 31.5625 -27.578125 L 32.328125 -27.578125 C 33.171875 -29.046875 34.414062 -30.1875 36.0625 -31 C 37.71875 -31.8125 39.582031 -32.21875 41.65625 -32.21875 C 45.238281 -32.21875 47.945312 -31.296875 49.78125 -29.453125 C 51.625 -27.617188 52.546875 -24.675781 52.546875 -20.625 L 52.546875 0 L 43.890625 0 L 43.890625 -18.46875 C 43.890625 -20.75 43.507812 -22.457031 42.75 -23.59375 C 41.988281 -24.738281 40.785156 -25.3125 39.140625 -25.3125 C 37.023438 -25.3125 35.441406 -24.554688 34.390625 -23.046875 C 33.347656 -21.535156 32.828125 -19.140625 32.828125 -15.859375 Z M 32.828125 0 "/></g></g></g><g fill="#01aff0" fill-opacity="1"><g transform="translate(333.027005, 68.644781)"><g><path d="M 17.625 -26.078125 C 15.789062 -26.078125 14.351562 -25.492188 13.3125 -24.328125 C 12.28125 -23.171875 11.691406 -21.53125 11.546875 -19.40625 L 23.640625 -19.40625 C 23.609375 -21.53125 23.050781 -23.171875 21.96875 -24.328125 C 20.894531 -25.492188 19.445312 -26.078125 17.625 -26.078125 Z M 18.828125 0.5625 C 13.742188 0.5625 9.769531 -0.835938 6.90625 -3.640625 C 4.039062 -6.453125 2.609375 -10.429688 2.609375 -15.578125 C 2.609375 -20.878906 3.929688 -24.976562 6.578125 -27.875 C 9.222656 -30.769531 12.882812 -32.21875 17.5625 -32.21875 C 22.03125 -32.21875 25.507812 -30.941406 28 -28.390625 C 30.488281 -25.847656 31.734375 -22.332031 31.734375 -17.84375 L 31.734375 -13.65625 L 11.34375 -13.65625 C 11.4375 -11.207031 12.160156 -9.296875 13.515625 -7.921875 C 14.878906 -6.546875 16.785156 -5.859375 19.234375 -5.859375 C 21.140625 -5.859375 22.9375 -6.054688 24.625 -6.453125 C 26.320312 -6.847656 28.097656 -7.476562 29.953125 -8.34375 L 29.953125 -1.671875 C 28.441406 -0.910156 26.828125 -0.347656 25.109375 0.015625 C 23.398438 0.378906 21.304688 0.5625 18.828125 0.5625 Z M 18.828125 0.5625 "/></g></g></g></svg>